HIERARCHY
ROOT joint_Root
{
	OFFSET 0.0 0.0 0.0
	CHANNELS 6 Xposition Yposition Zposition Zrotation Xrotation Yrotation 
	JOINT Hips
	{
		OFFSET -0.726466 93.3139 -2.00062
		CHANNELS 6 Xposition Yposition Zposition Zrotation Xrotation Yrotation 
		JOINT Spine
		{
			OFFSET 15.7357 0.0 0.0
			CHANNELS 6 Xposition Yposition Zposition Zrotation Xrotation Yrotation 
			JOINT Chest
			{
				OFFSET 8.98455 -0.406207 0.0
				CHANNELS 6 Xposition Yposition Zposition Zrotation Xrotation Yrotation 
				JOINT Neck
				{
					OFFSET 16.3773 0.0 0.0
					CHANNELS 6 Xposition Yposition Zposition Zrotation Xrotation Yrotation 
					JOINT Head
					{
						OFFSET 6.45672 0.0 0.0
						CHANNELS 6 Xposition Yposition Zposition Zrotation Xrotation Yrotation 
						End Site
						{
							OFFSET 0.0 0.0 0.0
						}
					}
				}
				JOINT Shoulder_L
				{
					OFFSET 12.9942 -0.242716 4.98039
					CHANNELS 6 Xposition Yposition Zposition Zrotation Xrotation Yrotation 
					JOINT UpperArm_L
					{
						OFFSET 5.34809 0.0 0.0
						CHANNELS 6 Xposition Yposition Zposition Zrotation Xrotation Yrotation 
						JOINT LowerArm_L
						{
							OFFSET 24.3286 1.87007e-05 0.0
							CHANNELS 6 Xposition Yposition Zposition Zrotation Xrotation Yrotation 
							JOINT Hand_L
							{
								OFFSET 22.2916 0.0 0.0
								CHANNELS 6 Xposition Yposition Zposition Zrotation Xrotation Yrotation 
								End Site
								{
									OFFSET 0.0 0.0 0.0
								}
							}
						}
					}
				}
				JOINT Shoulder_R
				{
					OFFSET 12.9945 -0.242716 -4.98039
					CHANNELS 6 Xposition Yposition Zposition Zrotation Xrotation Yrotation 
					JOINT UpperArm_R
					{
						OFFSET -5.34813 0.0 0.0
						CHANNELS 6 Xposition Yposition Zposition Zrotation Xrotation Yrotation 
						JOINT LowerArm_R
						{
							OFFSET -24.3289 0.000322201 0.0
							CHANNELS 6 Xposition Yposition Zposition Zrotation Xrotation Yrotation 
							JOINT Hand_R
							{
								OFFSET -22.2915 -0.000108084 0.0
								CHANNELS 6 Xposition Yposition Zposition Zrotation Xrotation Yrotation 
								End Site
								{
									OFFSET 0.0 0.0 0.0
								}
							}
						}
					}
				}
			}
		}
		JOINT UpperLeg_L
		{
			OFFSET -2.19248 -6.46944 0.0
			CHANNELS 6 Xposition Yposition Zposition Zrotation Xrotation Yrotation 
			JOINT LowerLeg_L
			{
				OFFSET 39.0811 0.0 -1.23785e-05
				CHANNELS 6 Xposition Yposition Zposition Zrotation Xrotation Yrotation 
				JOINT Foot_L
				{
					OFFSET 40.9854 0.0 -1.26872e-05
					CHANNELS 6 Xposition Yposition Zposition Zrotation Xrotation Yrotation 
					JOINT Toes_L
					{
						OFFSET 11.7543 0.0 0.0
						CHANNELS 6 Xposition Yposition Zposition Zrotation Xrotation Yrotation 
						End Site
						{
							OFFSET 0.0 0.0 0.0
						}
					}
				}
			}
		}
		JOINT UpperLeg_R
		{
			OFFSET -2.19251 6.46944 0.0
			CHANNELS 6 Xposition Yposition Zposition Zrotation Xrotation Yrotation 
			JOINT LowerLeg_R
			{
				OFFSET -39.0811 -0.00228153 -0.0401928
				CHANNELS 6 Xposition Yposition Zposition Zrotation Xrotation Yrotation 
				JOINT Foot_R
				{
					OFFSET -40.9854 0.0 0.0
					CHANNELS 6 Xposition Yposition Zposition Zrotation Xrotation Yrotation 
					JOINT Toes_R
					{
						OFFSET -11.7543 0.0 0.0
						CHANNELS 6 Xposition Yposition Zposition Zrotation Xrotation Yrotation 
						End Site
						{
							OFFSET 0.0 0.0 0.0
						}
					}
				}
			}
		}
	}
}
MOTION
Frames:	5
Frame Time:	0.0333333
0.000000 0.000000 0.000000 0.000000 0.000000 -0.000000 -0.916185 91.906000 -1.235110 87.528200 -3.008520 3.248260 15.735700 0.000005 -0.000001 82.068300 84.617600 -81.099000 8.984550 -0.406207 -0.000000 2.910410 -1.525090 1.975510 16.377300 -0.000001 -0.000001 4.625380 -0.367714 0.743401 6.456720 -0.000001 -0.000000 3.173010 0.120931 -2.074740 12.994200 -0.242716 4.980390 -89.850900 -0.401194 -69.612600 5.348090 -0.000007 -0.000001 -69.836300 34.003000 -12.205400 24.328600 0.000019 0.000005 3.814100 8.232590 -24.965300 22.291600 -0.000001 0.000005 6.292060 5.631050 -13.414700 12.994500 -0.242716 -4.980390 88.403600 4.476720 -70.351000 -5.348130 -0.000001 -0.000004 -60.297800 30.855800 -14.666100 -24.328900 0.000322 -0.000009 3.144610 6.224550 -26.879000 -22.291500 -0.000108 -0.000004 12.990300 5.656530 -15.672900 -2.192480 -6.469440 -0.000000 -170.369000 -16.833100 -4.532450 39.081100 -0.000007 -0.000012 -0.164686 0.356869 24.772400 40.985400 -0.000006 -0.000013 -5.774490 -2.575100 -65.256300 11.754300 -0.000000 0.000003 -0.000075 -0.000808 -16.608700 -2.192510 6.469440 -0.000001 176.589000 20.669400 176.231000 -39.081100 -0.002282 -0.040193 0.043876 -0.094867 23.149400 -40.985400 0.000008 0.000006 0.720595 1.819540 -64.583000 -11.754300 -0.000006 -0.000006 -0.005615 -0.067299 -19.311800
0.000000 0.000000 0.000000 0.000000 0.000000 -0.000000 -0.938668 91.905600 -1.179180 87.521600 -3.113730 3.305280 15.735700 0.000005 -0.000001 82.220300 84.601200 -81.225200 8.984550 -0.406207 -0.000000 2.946950 -1.502020 2.026800 16.377300 -0.000001 -0.000001 4.601450 -0.439903 0.743068 6.456720 -0.000001 -0.000000 3.173230 0.052059 -2.038670 12.994200 -0.242716 4.980390 -89.902000 -0.263416 -69.587900 5.348090 -0.000007 -0.000001 -68.547100 34.472300 -13.176600 24.328600 0.000019 0.000005 4.206870 8.802880 -25.669800 22.291600 -0.000001 0.000005 6.269680 5.637450 -13.916700 12.994500 -0.242716 -4.980390 88.436400 4.359240 -70.245300 -5.348130 -0.000001 -0.000004 -59.477100 33.157500 -14.399400 -24.328900 0.000322 -0.000009 3.199480 5.807250 -28.927900 -22.291500 -0.000108 -0.000004 12.414500 5.655680 -15.582700 -2.192480 -6.469440 -0.000000 -170.298000 -16.898300 -4.370240 39.081100 -0.000007 -0.000012 -0.168060 0.365028 24.721700 40.985400 -0.000006 -0.000013 -5.814900 -2.587610 -65.282700 11.754300 -0.000000 0.000003 -0.000070 -0.000761 -16.606900 -2.192510 6.469440 -0.000001 176.575000 20.575100 176.311000 -39.081100 -0.002282 -0.040193 0.042848 -0.092415 23.160100 -40.985400 0.000008 0.000006 0.708962 1.854100 -64.587700 -11.754300 -0.000006 -0.000006 -0.005388 -0.065175 -19.225200
0.000000 0.000000 0.000000 0.000000 0.000000 -0.000000 -0.969657 91.894800 -1.175520 87.510200 -3.074690 3.288320 15.735700 0.000005 -0.000001 81.956800 84.599700 -80.921300 8.984550 -0.406207 -0.000000 2.944070 -1.553270 2.108950 16.377300 -0.000001 -0.000001 4.583540 -0.547260 0.734245 6.456720 -0.000001 -0.000000 3.151540 -0.035486 -2.050810 12.994200 -0.242716 4.980390 -90.017200 0.046030 -69.534500 5.348090 -0.000007 -0.000001 -66.276000 34.590300 -14.717100 24.328600 0.000019 0.000005 4.885530 9.662610 -26.985900 22.291600 -0.000001 0.000005 6.283260 5.642520 -14.342500 12.994500 -0.242716 -4.980390 88.499800 4.154080 -70.122800 -5.348130 -0.000001 -0.000004 -58.311600 36.088300 -14.157400 -24.328900 0.000322 -0.000009 3.138130 5.107200 -31.640700 -22.291500 -0.000108 -0.000004 12.117100 5.655930 -15.612000 -2.192480 -6.469440 -0.000000 -170.279000 -16.852300 -4.431020 39.081100 -0.000007 -0.000012 -0.165051 0.357368 24.790200 40.985400 -0.000006 -0.000013 -5.835950 -2.586970 -65.309000 11.754300 -0.000000 0.000003 -0.000077 -0.000822 -16.609300 -2.192510 6.469440 -0.000001 176.608000 20.634000 176.283000 -39.081100 -0.002282 -0.040193 0.043684 -0.094126 23.213200 -40.985400 0.000008 0.000006 0.713828 1.856670 -64.647700 -11.754300 -0.000006 -0.000006 -0.005758 -0.068619 -19.365600
0.000000 0.000000 0.000000 0.000000 0.000000 -0.000000 -1.021460 91.901300 -1.171560 87.510100 -2.955560 3.301070 15.735700 0.000005 -0.000001 81.960100 84.591700 -80.886700 8.984550 -0.406207 -0.000000 2.960610 -1.556330 2.184820 16.377300 -0.000001 -0.000001 4.547110 -0.612069 0.671876 6.456720 -0.000001 -0.000000 3.129210 -0.255752 -1.933150 12.994200 -0.242716 4.980390 -90.154600 0.411202 -69.393900 5.348090 -0.000007 -0.000001 -63.093300 33.779600 -17.113400 24.328600 0.000019 0.000005 5.867720 10.825800 -28.683300 22.291600 -0.000001 0.000005 6.167760 5.645970 -14.642100 12.994500 -0.242716 -4.980390 88.607800 3.834740 -70.029700 -5.348130 -0.000001 -0.000004 -56.951700 39.420300 -13.652400 -24.328900 0.000322 -0.000009 3.372940 4.768950 -35.342200 -22.291500 -0.000108 -0.000004 12.348100 5.659720 -16.019900 -2.192480 -6.469440 -0.000000 -170.231000 -16.858600 -4.405910 39.081100 -0.000007 -0.000012 -0.167346 0.363493 24.720800 40.985400 -0.000006 -0.000013 -5.842540 -2.467680 -65.242900 11.754300 -0.000000 0.000003 -0.000068 -0.000741 -16.606200 -2.192510 6.469440 -0.000001 176.640000 20.674200 176.296000 -39.081100 -0.002282 -0.040193 0.043626 -0.093897 23.234400 -40.985400 0.000008 0.000006 0.751299 1.749020 -64.630900 -11.754300 -0.000006 -0.000006 -0.005510 -0.066317 -19.271700
0.000000 0.000000 0.000000 0.000000 0.000000 -0.000000 -1.079510 91.885500 -1.184220 87.506900 -2.718110 3.340120 15.735700 0.000005 -0.000001 82.150300 84.583700 -81.032000 8.984550 -0.406207 -0.000000 2.981820 -1.524650 2.274040 16.377300 -0.000001 -0.000001 4.549890 -0.692233 0.592827 6.456720 -0.000001 -0.000000 3.071730 -0.475143 -1.763910 12.994200 -0.242716 4.980390 -90.253100 0.667187 -69.224400 5.348090 -0.000007 -0.000001 -59.587500 31.557100 -19.993400 24.328600 0.000019 0.000005 6.788360 11.496200 -30.848200 22.291600 -0.000001 0.000005 6.351790 5.649470 -14.963600 12.994500 -0.242716 -4.980390 88.770700 3.364760 -69.917600 -5.348130 -0.000001 -0.000004 -55.538700 42.717600 -12.694400 -24.328900 0.000322 -0.000009 4.479300 5.292600 -40.339400 -22.291500 -0.000108 -0.000004 12.719300 5.665630 -16.750700 -2.192480 -6.469440 -0.000000 -170.203000 -16.708000 -4.484580 39.081100 -0.000007 -0.000012 -0.164227 0.355064 24.822000 40.985400 -0.000006 -0.000013 -5.851040 -2.377430 -65.245000 11.754300 -0.000000 0.000003 -0.000071 -0.000764 -16.607000 -2.192510 6.469440 -0.000001 176.654000 20.810700 176.346000 -39.081100 -0.002282 -0.040193 0.044301 -0.095200 23.292700 -40.985400 0.000008 0.000006 0.739561 1.674790 -64.739500 -11.754300 -0.000006 -0.000006 -0.005695 -0.068040 -19.342000
